/* XPM */
static char *forward_xpm[] = {
"32 32 255 2 0 0",
"   c #000000",
"!  c #020202",
"#  c #040405",
"$  c #050506",
"%  c #060707",
"&  c #070808",
"'  c #151617",
"(  c #161718",
")  c #212426",
"*  c #303337",
"+  c #34373B",
",  c #35393C",
"-  c #383A3C",
".  c #404549",
"/  c #41464A",
"0  c #4F545A",
"1  c #50555A",
"2  c #555C62",
"3  c #585D63",
"4  c #5C6268",
"5  c #5F7184",
"6  c #677787",
"7  c #747E87",
"8  c #757E88",
"9  c #5F7489",
":  c #6C7D8E",
";  c #5A7793",
"<  c #607A94",
"=  c #3D6995",
">  c #426C95",
"?  c #687F96",
"@  c #72869A",
"A  c #76899D",
"B  c #798C9F",
"C  c #768BA0",
"D  c #2A66A1",
"E  c #7D8FA1",
"F  c #2765A3",
"G  c #8296AA",
"H  c #1962AB",
"I  c #1460AC",
"J  c #1965AF",
"K  c #1361B0",
"L  c #4B7DB0",
"M  c #8D9EB0",
"N  c #5784B1",
"O  c #98A5B2",
"P  c #2C70B3",
"Q  c #6D8FB3",
"R  c #7796B4",
"S  c #9BA8B5",
"T  c #859DB7",
"U  c #8BA2B9",
"V  c #1065BB",
"W  c #1567BB",
"X  c #99AABB",
"Y  c #1269BE",
"Z  c #9BACBF",
"[  c #558CC1",
"\  c #357CC2",
"]  c #A2B2C2",
"^  c #2474C3",
"_  c #6292C3",
"`  c #0E69C4",
"a  c #146CC4",
"b  c #4484C4",
"c  c #93ABC4",
"d  c #95ACC4",
"e  c #116BC5",
"f  c #4585C5",
"g  c #0063C6",
"h  c #0466C6",
"i  c #0666C6",
"j  c #0867C6",
"k  c #116CC6",
"l  c #146DC6",
"m  c #367EC6",
"n  c #0868C7",
"o  c #0968C7",
"p  c #0D6AC7",
"q  c #0F6BC7",
"r  c #3980C7",
"s  c #0968C8",
"t  c #0A69C8",
"u  c #0B6AC8",
"v  c #0C6AC8",
"w  c #0E6BC8",
"x  c #0F6BC8",
"y  c #106CC8",
"z  c #508CC8",
"{  c #0E6CC9",
"|  c #106CC9",
"}  c #106DC9",
"~  c #116DC9",
" ! c #126EC9",
"!! c #1B72C9",
"#! c #1D74C9",
"$! c #2075C9",
"%! c #B2BDC9",
"&! c #116ECA",
"'! c #126ECA",
"(! c #136ECA",
")! c #136FCA",
"*! c #1971CA",
"+! c #1B72CA",
",! c #4C8CCA",
"-! c #6798CA",
".! c #1C73CB",
"/! c #1F75CB",
"0! c #2C7BCB",
"1! c #2F7DCB",
"2! c #317ECB",
"3! c #3580CB",
"4! c #5591CB",
"5! c #6C9BCB",
"6! c #1C74CC",
"7! c #2277CC",
"8! c #2679CC",
"9! c #2779CC",
":! c #2F7DCC",
";! c #317DCC",
"<! c #2E7ECC",
"=! c #327ECC",
">! c #3781CC",
"?! c #3A83CC",
"@! c #2177CD",
"A! c #2277CD",
"B! c #2278CD",
"C! c #3280CD",
"D! c #3681CD",
"E! c #3882CD",
"F! c #5692CD",
"G! c #B5C1CD",
"H! c #2A7CCE",
"I! c #3783CE",
"J! c #4288CE",
"K! c #5C95CE",
"L! c #B4C1CE",
"M! c #3D85CF",
"N! c #3A85D0",
"O! c #458AD0",
"P! c #3583D1",
"Q! c #4188D1",
"R! c #5A95D1",
"S! c #BAC5D1",
"T! c #3A86D2",
"U! c #428AD2",
"V! c #498DD2",
"W! c #498ED2",
"X! c #4B8ED2",
"Y! c #4089D3",
"Z! c #408AD3",
"[! c #458DD4",
"\! c #498ED4",
"]! c #70A2D4",
"^! c #458DD5",
"_! c #468DD5",
"`! c #478ED5",
"a! c #72A3D5",
"b! c #A2BBD5",
"c! c #A2BCD5",
"d! c #498FD6",
"e! c #A5BDD6",
"f! c #A5BED6",
"g! c #5395D7",
"h! c #A8BFD7",
"i! c #5596D8",
"j! c #5898D8",
"k! c #629CD8",
"l! c #ACC1D8",
"m! c #AFC4D9",
"n! c #B2C6D9",
"o! c #5F9DDA",
"p! c #B6C8DA",
"q! c #68A2DB",
"r! c #69A2DC",
"s! c #C3CFDC",
"t! c #6EA6DD",
"u! c #70A7DD",
"v! c #C4D1DD",
"w! c #C6D1DD",
"x! c #72A8DE",
"y! c #CBD5DE",
"z! c #73A9DF",
"{! c #77ABDF",
"|! c #C6D3DF",
"}! c #7CAFE1",
"~! c #CBD6E1",
" # c #8CB7E3",
"!# c #90BAE4",
"## c #93BCE5",
"$# c #CEDAE7",
"%# c #D1DCE7",
"&# c #A0C4E8",
"'# c #CADAE8",
"(# c #D3DEE8",
")# c #D5DFE9",
"*# c #CCDBEA",
"+# c #CFDCEA",
",# c #D0DDEA",
"-# c #D4DEEA",
".# c #B1CEEB",
"/# c #D1DEEB",
"0# c #B6D1EC",
"1# c #B8D2ED",
"2# c #C6DBEF",
"3# c #DCE5EF",
"4# c #C8DCF0",
"5# c #D8E3F0",
"6# c #DCE6F0",
"7# c #DEE7F0",
"8# c #CDDFF1",
"9# c #CEE0F1",
":# c #D0E1F1",
";# c #D9E5F1",
"<# c #DAE6F1",
"=# c #DCE7F1",
"># c #E0E9F1",
"?# c #CADEF2",
"@# c #D4E4F2",
"A# c #D6E4F3",
"B# c #D8E5F3",
"C# c #D8E6F3",
"D# c #DCE7F3",
"E# c #D6E5F4",
"F# c #D8E6F4",
"G# c #DAE7F4",
"H# c #DBE8F4",
"I# c #DCE8F4",
"J# c #DEE9F4",
"K# c #DCE8F5",
"L# c #DCE9F5",
"M# c #DDE9F5",
"N# c #DEE9F5",
"O# c #DEEAF5",
"P# c #E1EBF5",
"Q# c #E4EDF5",
"R# c #DEEAF6",
"S# c #E0EBF6",
"T# c #E1EBF6",
"U# c #E1ECF6",
"V# c #E2ECF6",
"W# c #E3ECF6",
"X# c #E4EDF7",
"Y# c #E6EFF7",
"Z# c #E7EFF8",
"[# c #E8F0F8",
"\# c #EAF1F9",
"]# c #ECF2F9",
"^# c #EEF4FA",
"_# c #F0F5FA",
"`# c #F1F6FB",
"a# c #F3F7FB",
"b# c #FFFFFF",
"c# c None",
"c#c#c#c#c#c#c#c#c#c#c#c#c#c#c#c#c#c#c#c#c#c#c#c#c#c#c#c#c#c#c#c#",
"c#c#c#c#c#c#c#c#c#c#c#r 1!#!j g o /!E!z c#c#c#c#c#c#c#c#c#c#c#c#",
"c#c#c#c#c#c#c#c#c#=!y o!&#?#]#a#]#?#&#o! !J!c#c#c#c#c#c#c#c#c#c#",
"c#c#c#c#c#c#c#>!y }!\#`#`#`#`#`#`#`#`#`#\#}!'!F!c#c#c#c#c#c#c#c#",
"c#c#c#c#c#c#9!_!U#_#_#_#_#_#_#_#_#_#_#_#_#_#U#`!D!c#c#c#c#c#c#c#",
"c#c#c#c#c#*!z!^#^#^#^#^#^#^#^#^#^#^#^#^#^#^#^#^#z!7!: c#c#c#c#c#",
"c#c#c#c#8!x!]#]#]#]#]#]#]#]#]#]#]#]#]#]#]#]#]#]#]#x!I!c#c#c#c#c#",
"c#c#c#3![!\#\#\#\#\#\#\#\#\#\#\#\#\#\#\#\#\#\#\#\#Z#^!K!c#c#c#c#",
"c#c#c#x E#[#[#[#[#[#[#[#[#[#[#[#[#[#[#[#[#[#[#[#[#[#E# !@ c#c#c#",
"c#c#:!{!Y#Y#Y#7#>#Y#Y#Y#Y#Y#Y#Y#Q#y!Y#Y#Y#Y#Y#Y#Y#Y#Y#{!V!c#c#c#",
"c#c#q M#X#X#X#p!_ S!W#X#X#X#X#X#6#R!U 3#X#X#X#X#X#X#X#M#~ 6 c#c#",
"c#m j!V#V#V#V#n!d!W!R )#V#V#V#V#=#X!d![ L!P#V#V#V#V#V#V#j!5!c#c#",
"c#0!##S#S#S#S#m!T!T!T!b ] J#S#S#<#M!T!T!N!Q %#S#S#S#S#S###U!( c#",
"c#!!1#N#N#N#N#l!H!H!H!H!H!N |!N#5#<!H!H!H!H!\ Z D#N#N#N#1#B!- c#",
"c#j A#K#K#K#K#h!6!6!6!6!6!6!^ T +#$!6!6!6!6!6!.!L s!K#K#A#t 1 c#",
"c#g G#G#G#G#G#e!w { { { { { { w P k { { { { { w u Y X G#G#g 4 c#",
"c#j :#C#C#C#C#c!h n t v t t o H C ` u v t t s i I E ,#C#:#t 2 c#",
"c#+!.#A#A#B#B#b!j w '!(!&!W < |!'#a '!(!~ { V ; v!B#B#A#.#@!. c#",
"c#2! #A#B#F#G#c!n { )!a > G!C#G#*#l )!'!` = %!C#G#F#C#A# #U!) c#",
"c#f g!A#C#G#K#e!j p D S ;#M#M#M#+#e w F O ;#M#M#L#H#F#B#g!]!$ c#",
"c#c#| :#F#H#M#f!K B -#O#O#O#O#O#/#J A (#O#O#R#R#O#K#G#:#} G   c#",
"c#c#?!t!F#H#M#$#w!M#N#R#R#R#R#R#D#~!R#R#R#R#S#S#O#K#G#t!\!,   c#",
"c#c#c#| 2#G#M#M#M#M#N#O#O#O#O#O#O#O#O#O#O#O#S#S#O#H#4#} c ! c#c#",
"c#c#c#,!Y!F#H#H#H#H#I#M#N#N#N#N#N#N#N#N#N#N#S#O#M#B#Z!k!*   c#c#",
"c#c#c#c#;!q!G#K#O#R#S#T#T#T#T#T#T#T#T#T#S#S#O#M#H#r!P!7   c#c#c#",
"c#c#c#c#c#/!q!G#K#O#R#S#S#T#T#T#T#T#S#S#S#O#M#H#r!@!M # c#c#c#c#",
"c#c#c#c#c#9 C!Z!8#K#M#O#R#S#S#S#S#S#R#O#O#L#9#Z!P!M &   c#c#c#c#",
"c#c#c#c#c#c#c#4!} u!@#K#M#O#O#O#O#O#N#M#@#u!} k!8 #   c#c#c#c#c#",
"c#c#c#c#c#c#c#c#? O!} i!!#0#A#K#A#0#!#i!~ \!d *   c#c#c#c#c#c#c#",
"c#c#c#c#c#c#c#c#c#c#5 -!Q!A!t g t A!U!a!G , !   c#c#c#c#c#c#c#c#",
"c#c#c#c#c#c#c#c#c#c#c#c#' + 0 4 3 / ) %     c#c#c#c#c#c#c#c#c#c#",
"c#c#c#c#c#c#c#c#c#c#c#c#c#c#c#c#c#c#c#c#c#c#c#c#c#c#c#c#c#c#c#c#"
};
