/* XPM */
static char *MainIcon_xpm[] = {
/* width height ncolors chars_per_pixel */
"36 36 35 1",
"  c #000000",
". c #cccc00",
"+ c #ffff00",
"@ c #ffcc00",
"# c #cc9900",
"$ c #333300",
"% c #0099cc",
"& c #666666",
"* c #99ccff",
"= c #ccff99",
"- c #cccc33",
"; c None",
"> c #6699cc",
", c #99cc66",
"' c #66cccc",
") c #cccc66",
"! c #333333",
"~ c #999999",
"{ c #66ccff",
"] c #999933",
"^ c #99cccc",
"/ c #cccc99",
"( c #666633",
"_ c #ffffcc",
": c #ccffff",
"< c #996666",
"[ c #3399cc",
"} c #cccccc",
"| c #ffcc33",
"1 c #33ccff",
"2 c #663333",
"3 c #3399ff",
"4 c #ccccff",
"5 c #cc9999",
"6 c #999966",
";;;;;;;;;;;;;;;;;;;;;;;;;;;;;;;;;;;;",
";;;;;;;;;;;;;;;;;;;;;;;;;;;;;;;;;;;;",
";;;;;;;;;;;;;;;;;;;;;;;;;;;;;;;;;;;;",
";;;;}};;;;;;;;;;;;;;;;;;;;;;;;;;;;;;",
";;;} &;;<<&};;;;;;;;;;;;;;;;;;;;;;;;",
";;;}!!;(-.|]~;;;;;;;;;;;;;;;;;;;;;;;",
";;;} &!+@+@+#6;;;;;;;;;;;;;;;;;;;;;;",
";;;}!!]++++++2;;;;;;;;;;;;;;;;;;;;;;",
";;;} !.+@+@++(};;;;;;;;;;;;;;;;;;;;;",
";;;}!!-++++++(;;;;;;;;;;;;;;;;;;;;;;",
";;;} !(+@+@+.&;;;;;;;;;;;;;;;;;;;;;;",
";;;}!&_$+++.(;{;;;;;;;;;;;;;;;;;;;;;",
";;;} &}}!(!&;4[;;;;;;;;;;;;;;;;;;;;;",
";;;}<~;;;};;;'{:**;;;;;;;;;;;;;;;;;;",
";;;;;;;;;;;;;{[;[3;;;;;;;;;;;;;;;;;;",
";;;;;;;;;;;':[{4{[:';*:;;;;;;;;;;;;;",
";;;;;;;;;;:3>1[4>{'1:1[;;;;;;;;;;;;;",
";;;;;;;;;;:*{[{**'*[:[{:{;;;;;;;;;;;",
";;;;;;;:}4[;[{>*^{>{>{[*[;[{^;4:}:;;",
";;;;;;;'{{;;1{*>:*{*{{{[;{:4*[[>{*;;",
";;;;;;;;;;;;[:>14:[:[*^3;;;;;5;&};;;",
";;;;;;;;;;;;{4*[;;{;{';{;;}!;~}~~;;;",
";;;;;;;;;;;;;;^3;;;;'*;;;6((&}2;!;;;",
";;;;;;;;;;;;;;:%;;;;;!&!!6=!;2~/~};;",
";;;;;;;;;;;;;;4{;;;;;(,/$/,!;&}&~~;;",
";;;;;;;;;;;;;;;;;;;;;!=)!,=!;~}(}&;;",
";;;;;;;;;;;;;;;;;;;;;!,/$),(;}6&5~;;",
";;;;;;;;;;;;;;;;;;;;;!=,()=!;/~!}~;;",
";;;;;;;;;;;;;;;;;;;;;(,/$=,(;~~&~};;",
";;;;;;;;;;;;;;;;;;;;;!&!!6=!;!}~<};;",
";;;;;;;;;;;;;;;;;;;;;;;;;6((~~!;!;;;",
";;;;;;;;;;;;;;;;;;;;;;;;;;}!}}~~};;;",
";;;;;;;;;;;;;;;;;;;;;;;;;;;;;5;&;;;;",
";;;;;;;;;;;;;;;;;;;;;;;;;;;;;;};;;;;",
";;;;;;;;;;;;;;;;;;;;;;;;;;;;;;;;;;;;",
";;;;;;;;;;;;;;;;;;;;;;;;;;;;;;;;;;;;",
};