/* XPM */
static char const *local_on_xpm[] = {
/* width height ncolors chars_per_pixel */
"16 16 53 1",
"  c #c2c0c0",
". c #dcdbdb",
"+ c #979493",
"@ c #201b18",
"# c #c0bfbe",
"$ c None",
"% c #bdbcbb",
"& c #777472",
"* c #514d4b",
"= c #c5c4c3",
"- c #7a7776",
"; c #221d1a",
"> c #9b9997",
", c #f7f6f6",
"' c #595553",
") c #888684",
"! c #e5e4e4",
"~ c #d6d5d5",
"{ c #f1f1f1",
"] c #8f8c8b",
"^ c #b2b0af",
"/ c #bfbebd",
"( c #9c9a98",
"_ c #1f1a17",
": c #54514e",
"< c #f4f4f4",
"[ c #312d2a",
"} c #241f1c",
"| c #211c19",
"1 c #726e6c",
"2 c #fbfbfb",
"3 c #534f4c",
"4 c #fdfdfd",
"5 c #fafafa",
"6 c #9e9c9b",
"7 c #5a5654",
"8 c #565250",
"9 c #fefefe",
"0 c #e9e8e8",
"a c #5d5a57",
"b c #55514f",
"c c #8c8988",
"d c #5f5b59",
"e c #504c4a",
"f c #e2e1e0",
"g c #f8f8f8",
"h c #484442",
"i c #908e8c",
"j c #231e1b",
"k c #b5b3b2",
"l c #908d8c",
"m c #585452",
"n c #fcfcfc",
"$$$$$$$$$$$$$$$$",
"$$$$$$$<$$$$$$$$",
"$$$$$f&c$$$$$$$$",
"$$$.1;_/$$$$$$$$",
"$$+@___h*ee-$$$$",
"$$$%*__ $$$~a$$$",
"$$$$$='l$$$$i#$$",
"$$$$$$$!$$$$(k$$",
"$$$$$$$$$$$$6^$$",
"$$-j]$$$$$${*0$$",
"$4|_}3:b8m7d$$$$",
"$$)[>9n25g,$$$$$",
"$$$$$$$$$$$$$$$$",
"$$$$$$$$$$$$$$$$",
"$$$$$$$$$$$$$$$$",
"$$$$$$$$$$$$$$$$",
};
