/* XPM */
static char const *local_off_xpm[] = {
/* width height ncolors chars_per_pixel */
"16 16 77 1",
"  c #b44b58",
". c #f9f9f9",
"+ c #312c2a",
"@ c #da3b41",
"# c #231a17",
"$ c #ca6a6a",
"% c #c30921",
"& c #aa0b1f",
"* c #a6a3a2",
"= c #d5d4d4",
"- c #940e1e",
"; c #5d3735",
"> c None",
", c #5c1e1b",
"' c #5a1d1b",
") c #ff6479",
"! c #aba9a8",
"~ c #ed9393",
"{ c #e93e45",
"] c #bcbab9",
"^ c #ed9292",
"/ c #d67070",
"( c #a6a4a3",
"_ c #5b1d1b",
": c #ffb2bd",
"< c #aaa8a7",
"[ c #f00424",
"} c #f4bcbc",
"| c #3f1619",
"1 c #2e1818",
"2 c #f10424",
"3 c #fffefe",
"4 c #e2e0e0",
"5 c #4c1c1a",
"6 c #e91825",
"7 c #c82423",
"8 c #1f1a17",
"9 c #ff8192",
"0 c #c92523",
"a c #8e0e1e",
"b c #7a191d",
"c c #8e3e47",
"d c #a8a6a4",
"e c #cdcccb",
"f c #ffb1bc",
"g c #b05e5d",
"h c #281d1b",
"i c #f36074",
"j c #625e5b",
"k c #484441",
"l c #6c6866",
"m c #ff8293",
"n c #651e1c",
"o c #5a5654",
"p c #663b39",
"q c #959290",
"r c #fc6377",
"s c #da2625",
"t c #8c8988",
"u c #522a2d",
"v c #e97979",
"w c #ca2523",
"x c #4b2f2c",
"y c #ad0b20",
"z c #612f34",
"A c #fe0325",
"B c #5f131b",
"C c #f8f7f7",
"D c #ff0325",
"E c #f4bdbd",
"F c #d72524",
"G c #a42221",
"H c #572c2f",
"I c #fffdfd",
"J c #aa2321",
"K c #e4e4e3",
"L c #f0eeee",
">>>f3>>>>>>>3}>>",
">>9D)3>=>>>3vs~>",
">:DDA kt>>3vsssE",
">3r&|88dK4$Fssv3",
">>*h888Hlpn5J/3>",
">>>Lc18y{sssx3>>",
">>>>3i-bsssv*!>>",
">>>>>I{Fss{I<(>>",
">>.eCvsss6D)q]>>",
">>o8x70w@[2%u3>>",
">>+8#_';jzBaD)3>",
">3g,Gsv3>3)DDD)3",
">Esssv3>>>3)DDD:",
">>^sv3>>>>>3)Dm>",
">>>}3>>>>>>>3f>>",
">>>>>>>>>>>>>>>>",
};
