/* XPM */
static char const *mike_on_xpm[] = {
/* width height ncolors chars_per_pixel */
"16 16 52 1",
"  c #fbf100",
". c #fff500",
"+ c #fcf200",
"@ c #f7ed00",
"# c #f8ee00",
"$ c #ece201",
"% c #c7c6c5",
"& c #ede301",
"* c #b1aa26",
"= c #e3da02",
"- c #979479",
"; c None",
"> c #c2c0a2",
", c #595540",
"' c #635f4b",
") c #999790",
"! c #67634a",
"~ c #676348",
"{ c #eee401",
"] c #cecdcc",
"^ c #504b30",
"/ c #9f9d98",
"( c #9a9892",
"_ c #8f8c8b",
": c #605c49",
"< c #555137",
"[ c #75726f",
"} c #e9e002",
"| c #1f1a17",
"1 c #e0dfdf",
"2 c #fffffc",
"3 c #a5a28a",
"4 c #f1e701",
"5 c #413c31",
"6 c #928c23",
"7 c #5a553f",
"8 c #857f26",
"9 c #b7b01f",
"0 c #393527",
"a c #504b31",
"b c #938c20",
"c c #bdbcb6",
"d c #f3e901",
"e c #c0b91f",
"f c #464135",
"g c #a9a793",
"h c #b6af24",
"i c #504b1e",
"j c #908e87",
"k c #6e6b67",
"l c #908d8c",
"m c #9d9b99",
";;;;;;;;;;;;;;;;",
";;;;;;;;;;;;;;;;",
";;%_%;;;;;;;;;;;",
";;l|_12:<'/;;;;;",
";;l|_gi4 $*3;;;;",
";;l|[8....{h(;;;",
";;l|5&.....}!;;;",
";;l|0+......^;;;",
";;l|f=.....@7;;;",
";;l|k6....dej;;;",
";;l|_>b#.}9-;;;;",
";;l|_;c,a~);;;;;",
";;]m];;;;;;;;;;;",
";;;;;;;;;;;;;;;;",
";;;;;;;;;;;;;;;;",
";;;;;;;;;;;;;;;;",
};
