/* XPM */
static char const *mike_off_xpm[] = {
/* width height ncolors chars_per_pixel */
"16 16 68 1",
"  c #fef400",
". c #fff500",
"+ c #fcf200",
"@ c #faf000",
"# c #55502f",
"$ c #503b14",
"% c #f5eb01",
"& c #7c201e",
"* c #ff6478",
"= c #534e39",
"- c #a25b52",
"; c #ede301",
"> c #b2920c",
", c #908c8b",
"' c #8d2a19",
") c None",
"! c #444033",
"~ c #907b0d",
"{ c #ab2321",
"] c #67634a",
"^ c #b1970a",
"/ c #5e5a41",
"( c #9b3b1b",
"_ c #9f8a0c",
": c #ff6479",
"< c #ed9393",
"[ c #ed9292",
"} c #844948",
"| c #ffb2bd",
"1 c #e1d703",
"2 c #f4bcbc",
"3 c #903f48",
"4 c #a05754",
"5 c #e9e002",
"6 c #fffefe",
"7 c #1f1a17",
"8 c #ff8192",
"9 c #9f494b",
"0 c #75363c",
"a c #7d3d3d",
"b c #d3b706",
"c c #9d321d",
"d c #9e7f0e",
"e c #413c32",
"f c #8f4f4c",
"g c #ffb1bc",
"h c #6a6657",
"i c #fbfbfb",
"j c #8f0e1e",
"k c #ce0822",
"l c #e6dc02",
"m c #ff8293",
"n c #393527",
"o c #f2e901",
"p c #504b31",
"q c #706c5a",
"r c #524d37",
"s c #da2625",
"t c #e97979",
"u c #673d38",
"v c #ff0325",
"w c #f4bdbd",
"x c #a9191d",
"y c #856210",
"z c #565139",
"A c #9d0d1e",
"B c #dfd603",
"C c #908d8c",
")))g6)))))))62))",
"))8v:6)))))6ts<)",
")|kAk:6)))6tsssw",
")637jv*h/q4ssst6",
")),7jx$lo1dcst6)",
"))C70y ...5>f6))",
"))C7e;.....5])))",
"))C7n+......p)))",
"))C7!B..... =)))",
"))C7u~....%^96))",
")),7&(_..@b'v:6)",
")6}7&s-r#zavvv:6",
")w{&{t6)i)6:vvv|",
"))[st6)))))6:vm)",
")))26)))))))6g))",
"))))))))))))))))",
};
