/* XPM */
static char *pause_xpm[] = {
"32 32 256 2 0 0",
"   c #000000",
"!  c #020202",
"#  c #040405",
"$  c #050506",
"%  c #060707",
"&  c #070808",
"'  c #151617",
"(  c #161718",
")  c #212426",
"*  c #303337",
"+  c #34373B",
",  c #35393C",
"-  c #383A3C",
".  c #35393D",
"/  c #404549",
"0  c #41464A",
"1  c #4F545A",
"2  c #50555A",
"3  c #555C62",
"4  c #585D63",
"5  c #5C6268",
"6  c #5D6369",
"7  c #5F7184",
"8  c #677787",
"9  c #747E87",
":  c #757E88",
";  c #5F7489",
"<  c #6C7D8E",
"=  c #687F96",
">  c #72869A",
"?  c #4573A0",
"@  c #4774A1",
"A  c #4A75A1",
"B  c #4A76A1",
"C  c #4B76A1",
"D  c #4975A2",
"E  c #6483A2",
"F  c #6583A2",
"G  c #6683A2",
"H  c #6784A2",
"I  c #527AA3",
"J  c #6584A3",
"K  c #597FA5",
"L  c #6082A6",
"M  c #6787A8",
"N  c #8296AA",
"O  c #8397AA",
"P  c #7590AB",
"Q  c #899AAD",
"R  c #8D9EB0",
"S  c #889FB6",
"T  c #3A7CBD",
"U  c #3A7CBE",
"V  c #3B7DBE",
"W  c #3C7DBE",
"X  c #3B7DBF",
"Y  c #3F7FBF",
"Z  c #4884C1",
"[  c #528AC3",
"oo c #0E69C4",
"]  c #93ABC4",
"^  c #95ACC4",
"_  c #0F6AC5",
"`  c #4585C5",
"a  c #5C90C5",
"b  c #0063C6",
"c  c #0465C6",
"d  c #0767C6",
"e  c #0867C6",
"f  c #126CC6",
"g  c #156DC6",
"h  c #166DC6",
"i  c #367EC6",
"j  c #0566C7",
"k  c #0666C7",
"l  c #0767C7",
"m  c #0868C7",
"n  c #0968C7",
"o  c #0F6BC7",
"p  c #176EC7",
"q  c #1A70C7",
"r  c #3980C7",
"s  c #0968C8",
"t  c #0A69C8",
"u  c #0B69C8",
"v  c #0B6AC8",
"w  c #0C6AC8",
"x  c #0D6AC8",
"y  c #0C6BC8",
"z  c #0D6BC8",
"{  c #0F6BC8",
"|  c #106CC8",
"}  c #508CC8",
"~  c #6596C8",
" ! c #7DA3C8",
"!! c #0E6BC9",
"#! c #106CC9",
"$! c #106DC9",
"%! c #116DC9",
"&! c #126EC9",
"'! c #1B72C9",
"(! c #1D74C9",
")! c #126ECA",
"*! c #136ECA",
"+! c #146FCA",
",! c #156FCA",
"-! c #1971CA",
".! c #1B72CA",
"/! c #2778CA",
"0! c #4C8CCA",
"1! c #6798CA",
"2! c #6F9CCA",
"3! c #1972CB",
"4! c #1F75CB",
"5! c #2C7BCB",
"6! c #2F7DCB",
"7! c #317ECB",
"8! c #3580CB",
"9! c #5591CB",
":! c #6C9BCB",
";! c #2277CC",
"<! c #2679CC",
"=! c #2779CC",
">! c #2F7DCC",
"?! c #317DCC",
"@! c #327ECC",
"A! c #3781CC",
"B! c #3A83CC",
"C! c #2177CD",
"D! c #2277CD",
"E! c #2278CD",
"F! c #3280CD",
"G! c #3581CD",
"H! c #3681CD",
"I! c #3882CD",
"J! c #5692CD",
"K! c #277ACE",
"L! c #3783CE",
"M! c #4288CE",
"N! c #5C95CE",
"O! c #6398CF",
"P! c #458AD0",
"Q! c #3583D1",
"R! c #4188D1",
"S! c #4489D1",
"T! c #438AD2",
"U! c #498DD2",
"V! c #649BD2",
"W! c #B6C4D2",
"X! c #4089D3",
"Y! c #408AD3",
"Z! c #428AD3",
"[! c #438BD3",
"o! c #B8C5D3",
"]! c #B9C5D3",
"^! c #BAC6D3",
"_! c #BAC7D3",
"`! c #458DD4",
"a! c #498ED4",
"b! c #498FD4",
"c! c #5192D4",
"d! c #70A2D4",
"e! c #BCC7D4",
"f! c #BDC9D4",
"g! c #BEC9D4",
"h! c #448CD5",
"i! c #458DD5",
"j! c #468DD5",
"k! c #478ED5",
"l! c #72A3D5",
"m! c #C0CAD5",
"n! c #C2CBD6",
"o! c #5395D7",
"p! c #5295D8",
"q! c #5596D8",
"r! c #5898D8",
"s! c #629CD8",
"t! c #C8D1D9",
"u! c #5F9DDA",
"v! c #68A2DB",
"w! c #69A2DC",
"x! c #6EA6DD",
"y! c #6FA6DD",
"z! c #70A7DD",
"{! c #72A8DE",
"|! c #B6CADE",
"}! c #73A9DF",
"~! c #77ABDF",
" # c #B8CBDF",
"!# c #B8CCDF",
"## c #BACDE0",
"$# c #BBCDE0",
"%# c #7CAFE1",
"&# c #BDCFE1",
"'# c #BECFE1",
"(# c #C1D1E2",
")# c #C4D3E2",
"*# c #CDD7E2",
"+# c #8CB7E3",
",# c #C7D5E3",
"-# c #90BAE4",
".# c #CCD8E4",
"/# c #93BCE5",
"0# c #CFDAE7",
"1# c #A0C4E8",
"2# c #B1CEEB",
"3# c #B6D1EC",
"4# c #B8D2ED",
"5# c #C6DBEF",
"6# c #C8DCF0",
"7# c #CDDFF1",
"8# c #CEE0F1",
"9# c #D0E1F1",
":# c #D1E1F1",
";# c #CADEF2",
"<# c #D4E4F2",
"=# c #D5E4F3",
"># c #D6E4F3",
"?# c #D6E5F3",
"@# c #D7E5F3",
"A# c #D8E5F3",
"B# c #D8E6F3",
"C# c #E3EBF3",
"D# c #D6E5F4",
"E# c #D8E6F4",
"F# c #D9E6F4",
"G# c #D9E7F4",
"H# c #DAE7F4",
"I# c #DBE7F4",
"J# c #DBE8F4",
"K# c #E3ECF4",
"L# c #E4ECF4",
"M# c #DCE8F5",
"N# c #DCE9F5",
"O# c #DDE9F5",
"P# c #DEE9F5",
"Q# c #DEEAF5",
"R# c #DFEAF5",
"S# c #DFEAF6",
"T# c #E0EBF6",
"U# c #E1EBF6",
"V# c #E1ECF6",
"W# c #E2ECF6",
"X# c #E4EDF7",
"Y# c #E6EFF7",
"Z# c #E7EFF7",
"[# c #E7EFF8",
"o# c #E8F0F8",
"]# c #EAF1F9",
"^# c #ECF2F9",
"_# c #EEF4FA",
"`# c #F0F5FA",
"a# c #F1F6FB",
"b# c #F3F7FB",
"c# c #FFFFFF",
"d# c None",
"d#d#d#d#d#d#d#d#d#d#d#d#d#d#d#d#d#d#d#d#d#d#d#d#d#d#d#d#d#d#d#d#",
"d#d#d#d#d#d#d#d#d#d#d#r 6!(!e b n 4!I!} d#d#d#d#d#d#d#d#d#d#d#d#",
"d#d#d#d#d#d#d#d#d#@!| u!1#;#^#b#^#;#1#u!&!M!d#d#d#d#d#d#d#d#d#d#",
"d#d#d#d#d#d#d#A!| %#]#a#a#a#a#a#a#a#a#a#]#%#)!J!d#d#d#d#d#d#d#d#",
"d#d#d#d#d#d#=!j!V#`#`#`#`#`#`#`#`#`#`#`#`#`#V#k!H!d#d#d#d#d#d#d#",
"d#d#d#d#d#-!}!_#_#_#_#_#_#_#_#_#_#_#_#_#_#_#_#_#}!;!< d#d#d#d#d#",
"d#d#d#d#<!{!^#^#^#^#^#^#^#^#^#^#^#^#^#^#^#^#^#^#^#{!L!d#d#d#d#d#",
"d#d#d#8!`!]#]#]#]#]#]#]#]#]#]#]#]#]#]#]#]#]#]#]#]#[#i!N!d#d#d#d#",
"d#d#d#{ D#o#o#o#o#L#C#C#K#Z#o#o#o#Z#L#C#C#L#o#o#o#o#D#&!> d#d#d#",
"d#d#>!~!Y#Y#Y#Y#Y# !V!V!O!t!Y#Y#Y#.#V!V!V!P Y#Y#Y#Y#Y#~!U!d#d#d#",
"d#d#o O#X#X#X#X#X#2!p!p!c!n!X#X#X#,#p!p!p!M X#X#X#X#X#O#%!8 d#d#",
"d#i r!W#W#W#W#W#W#~ h!h!S!m!W#W#W#)#h!h!h!L W#W#W#W#W#W#r!:!d#d#",
"d#5!/#T#T#T#T#T#T#a Q!Q!G!g!T#T#T#(#Q!Q!Q!K T#T#T#T#T#T#/#T!( d#",
"d#'!4#P#P#P#P#P#P#[ K!K!/!e!P#P#P#'#K!K!K!I P#P#P#P#P#P#4#E!- d#",
"d#e =#M#M#M#M#M#M#Z 3!3!q ^!M#M#M#$#3!3!3!C M#M#M#M#M#M#=#t 2 d#",
"d#b H#H#H#H#H#H#H#Y v z _ o!H#H#H#!#v y !!? H#H#H#H#H#H#H#b 5 d#",
"d#d :#B#B#B#B#B#B#T k u ooW!B#B#B#|!c m w ? B#B#B#B#B#B#:#t 3 d#",
"d#.!2#=#?#@#A#B#B#U s #!g W!B#B#B#|!k x *!@ B#B#B#A#@#>#2#C!/ d#",
"d#7!+#>#@#E#G#H#H#V t )!p ]!I#I#I# #l !!,!A H#H#H#F#B#?#+#Z!) d#",
"d#` o!?#B#H#M#O#O#W t %!h _!O#O#O###l !!+!B O#O#N#J#F#@#o!d!$ d#",
"d#d##!9#E#J#O#R#S#X m !!f f!T#T#T#&#j u #!D S#S#Q#M#H#:#$!N   d#",
"d#d#B!x!E#J#O#S#T#S E G H *#U#U#U#0#J F G Q T#T#Q#M#H#y!a!.   d#",
"d#d#d##!5#H#O#R#T#U#U#U#U#U#U#U#U#U#U#U#U#U#T#T#Q#J#6#$!] ! d#d#",
"d#d#d#0!X!F#J#P#S#T#U#U#V#V#V#V#V#V#V#U#U#U#T#R#O#@#Y!s!*   d#d#",
"d#d#d#d#?!v!H#M#Q#S#T#U#U#U#U#U#U#U#U#U#T#T#R#O#J#w!Q!9   d#d#d#",
"d#d#d#d#d#4!v!H#M#Q#S#T#T#U#U#U#U#U#T#T#T#R#O#J#w!C!R # d#d#d#d#",
"d#d#d#d#d#; F!Y!7#M#O#Q#S#T#T#T#T#T#S#R#Q#N#8#Y!Q!R &   d#d#d#d#",
"d#d#d#d#d#d#d#9!$!z!<#M#O#Q#Q#Q#Q#Q#P#O#<#z!$!s!: #   d#d#d#d#d#",
"d#d#d#d#d#d#d#d#= P!$!q!-#3#=#M#=#3#-#q!%!b!^ *   d#d#d#d#d#d#d#",
"d#d#d#d#d#d#d#d#d#d#7 1!R!D!t b t D![!l!O , !   d#d#d#d#d#d#d#d#",
"d#d#d#d#d#d#d#d#d#d#d#d#' + 1 6 4 0 ) %     d#d#d#d#d#d#d#d#d#d#",
"d#d#d#d#d#d#d#d#d#d#d#d#d#d#d#d#d#d#d#d#d#d#d#d#d#d#d#d#d#d#d#d#"
};
