/* XPM */
static char const *pause_xpm[] = {
/* width height ncolors chars_per_pixel */
"16 16 5 1",
"  c #c9c5db",
". c #948bb8",
"+ c None",
"@ c #938ab7",
"# c #28166f",
"++++++++++++++++",
"++++++++++++++++",
"+++ @@@ + @@@ ++",
"+++@###.+@###.++",
"+++@###.+@###.++",
"+++@###.+@###.++",
"+++@###.+@###.++",
"+++@###.+@###.++",
"+++@###.+@###.++",
"+++@###.+@###.++",
"+++@###.+@###.++",
"+++@###.+@###.++",
"+++ @@@ + @@@ ++",
"++++++++++++++++",
"++++++++++++++++",
"++++++++++++++++",
};
