/* XPM */
static char *pause_xpm[] = {
"16 16 113 2 0 0",
"   c #000000",
"!  c #6C737B",
"#  c #6D747B",
"$  c #8A939C",
"%  c #8E969D",
"&  c #8C959F",
"'  c #8E97A0",
"(  c #618AB4",
")  c #5987B5",
"*  c #5E8AB6",
"+  c #5F8BB7",
",  c #6D93BA",
"-  c #91A7BC",
".  c #7B9CBD",
"/  c #A1B0BE",
"0  c #1268BF",
"1  c #1469BF",
"2  c #5990C7",
"3  c #A0B4C7",
"4  c #0968C8",
"5  c #0A69C8",
"6  c #0B69C8",
"7  c #0B6AC8",
"8  c #A3B4C8",
"9  c #0E6BC9",
":  c #106DC9",
";  c #116DC9",
"<  c #126EC9",
"=  c #528EC9",
">  c #9AB2C9",
"?  c #126ECA",
"@  c #548FCA",
"A  c #9DB3CA",
"B  c #1771CB",
"C  c #1871CB",
"D  c #1972CB",
"E  c #9EB4CB",
"F  c #A1B6CB",
"G  c #A5B9CC",
"H  c #277ACD",
"I  c #2A7CCD",
"J  c #5E95CD",
"K  c #287BCE",
"L  c #297CCE",
"M  c #ACBDCE",
"N  c #2A7CCF",
"O  c #2C7DCF",
"P  c #70A0D0",
"Q  c #3583D1",
"R  c #82ABD4",
"S  c #5B99D6",
"T  c #5D99D7",
"U  c #629DD7",
"V  c #82ACD7",
"W  c #84AED7",
"X  c #5295D8",
"Y  c #649ED8",
"Z  c #629DD9",
"[  c #669FD9",
"oo c #68A1D9",
"]  c #96B8D9",
"^  c #5E9CDA",
"_  c #5F9CDA",
"`  c #619DDA",
"a  c #68A1DA",
"b  c #90B5DA",
"c  c #99B9DA",
"d  c #9EBBDA",
"e  c #649FDB",
"f  c #9EBCDB",
"g  c #69A3DC",
"h  c #91B7DC",
"i  c #8EB5DD",
"j  c #82AFDE",
"k  c #83B0DE",
"l  c #A8C3DE",
"m  c #B2C8E0",
"n  c #A8C8E9",
"o  c #A9C9E9",
"p  c #CBDAE9",
"q  c #D4DFE9",
"r  c #D4DFEA",
"s  c #AECCEB",
"t  c #AFCDEB",
"u  c #B0CEEB",
"v  c #B1CEEB",
"w  c #B2CFEB",
"x  c #D5E0EC",
"y  c #B9D3EE",
"z  c #BCD5EE",
"{  c #D9E3EE",
"|  c #D9E4EF",
"}  c #DEE6EF",
"~  c #CEE0F1",
" ! c #DEE8F1",
"!! c #D2E2F2",
"#! c #DDE7F2",
"$! c #D6E5F3",
"%! c #D8E6F3",
"&! c #DAE7F4",
"'! c #DBE7F4",
"(! c #DCE8F5",
")! c #DDE9F5",
"*! c #DEEAF5",
"+! c #DFEAF6",
",! c #E0EBF6",
"-! c #E1EBF6",
".! c #E4EDF7",
"/! c #E5EEF7",
"0! c #E8F0F8",
"1! c #ECF2F9",
"2! c #FFFFFF",
"3! c None",
"3!3!3!3!Z I 6 6 O a 3!3!3!3!3!3!",
"3!3!k < g z /!/!z g ? h 3!3!3!3!",
"3!j D z 1!1!1!1!1!1!z D b 3!3!3!",
"3!; y 0!x p }  !p q 0!y < / 3!3!",
"T e .!.!R X M m X . .!.!e oo3!3!",
"H t ,!,!P Q G l Q , ,!,!t N 3!3!",
"5 !!(!(!J D E f D + (!(!!!5 % 3!",
"5 ~ %!%!= 7 > ] 4 ) %!%!~ 5 & 3!",
"H n &!&!@ ; A c 9 * '!&!o K ! 3!",
"S ^ )!+!2 1 F d 0 ( +!*!_ Y 3!3!",
"3!: u ,!| r #!#!r { ,!v ; 8 3!3!",
"3!V B v ,!-!-!-!-!,!w C i 3!3!3!",
"3!3!W ; ` s $!$!s ` ; i 3!3!3!3!",
"3!3!3!- U L 5 5 L [ 3 3!3!3!3!3!",
"3!3!3!3!3!3!$ ' # 3!3!3!3!3!3!3!",
"3!3!3!3!3!3!3!3!3!3!3!3!3!3!3!3!"
};
