/* XPM */
static char const *play_xpm[] = {
/* width height ncolors chars_per_pixel */
"16 16 9 1",
"  c #4b4a41",
". c #668630",
"+ c None",
"@ c #628327",
"# c #84c225",
"$ c #434532",
"% c #4c4b41",
"& c #4d4b44",
"* c #a4a49d",
"++++++++++++++++",
"++++++++++++++++",
"+++%*+++++++++++",
"+++$@$*+++++++++",
"+++$##@$*+++++++",
"+++$####@$*+++++",
"+++$######@$*+++",
"+++$########.&++",
"+++$######@$*+++",
"+++$####@$*+++++",
"+++$##@$*+++++++",
"+++$@$*+++++++++",
"+++ *+++++++++++",
"++++++++++++++++",
"++++++++++++++++",
"++++++++++++++++",
};
