/* XPM */
static char *play_xpm[] = {
"16 16 99 2 0 0",
"   c #000000",
"!  c #6C737B",
"#  c #6D747B",
"$  c #8A939C",
"%  c #8E969D",
"&  c #8C959F",
"'  c #8E97A0",
"(  c #316DAA",
")  c #7891AB",
"*  c #1E67B1",
"+  c #92A4B7",
",  c #3879B9",
"-  c #91A7BC",
".  c #5489BE",
"/  c #A1B0BE",
"0  c #6F98C2",
"1  c #A9B7C6",
"2  c #A0B4C7",
"3  c #0A69C8",
"4  c #0B69C8",
"5  c #0E6BC8",
"6  c #126CC8",
"7  c #A3B4C8",
"8  c #0E6BC9",
"9  c #106CC9",
":  c #106DC9",
";  c #116DC9",
"<  c #126EC9",
"=  c #126ECA",
">  c #1570CA",
"?  c #1670CA",
"@  c #1670CB",
"A  c #1771CB",
"B  c #1871CB",
"C  c #1972CB",
"D  c #277ACD",
"E  c #2A7CCD",
"F  c #287BCE",
"G  c #297CCE",
"H  c #2A7CCF",
"I  c #2C7DCF",
"J  c #3280CF",
"K  c #ABBDCF",
"L  c #3281D1",
"M  c #B1C3D4",
"N  c #5B99D6",
"O  c #5D99D7",
"P  c #629DD7",
"Q  c #82ACD7",
"R  c #84AED7",
"S  c #649ED8",
"T  c #629DD9",
"U  c #669FD9",
"V  c #68A1D9",
"W  c #5E9CDA",
"X  c #5F9CDA",
"Y  c #619DDA",
"Z  c #68A1DA",
"[  c #90B5DA",
"oo c #649FDB",
"]  c #C0CDDB",
"^  c #69A3DC",
"_  c #91B7DC",
"`  c #8EB5DD",
"a  c #82AFDE",
"b  c #83B0DE",
"c  c #CAD8E5",
"d  c #A8C8E9",
"e  c #A9C9E9",
"f  c #AECCEB",
"g  c #AFCDEB",
"h  c #B0CEEB",
"i  c #B1CEEB",
"j  c #B2CFEB",
"k  c #D4DFEC",
"l  c #B9D3EE",
"m  c #BCD5EE",
"n  c #CEE0F1",
"o  c #D2E2F2",
"p  c #D6E5F3",
"q  c #D8E6F3",
"r  c #DCE7F3",
"s  c #DAE7F4",
"t  c #DBE7F4",
"u  c #DEE9F4",
"v  c #DCE8F5",
"w  c #DDE9F5",
"x  c #DEEAF5",
"y  c #DFEAF6",
"z  c #E0EBF6",
"{  c #E1EBF6",
"|  c #E3ECF6",
"}  c #E4EDF7",
"~  c #E5EEF7",
" ! c #E7EFF7",
"!! c #E8F0F8",
"#! c #ECF2F9",
"$! c #FFFFFF",
"%! c None",
"%!%!%!%!T E 4 4 I Z %!%!%!%!%!%!",
"%!%!b < ^ m ~ ~ m ^ = _ %!%!%!%!",
"%!a C m #!#!#!#!#!#!m C [ %!%!%!",
"%!; l !!!! !!!!!!!!!!!l < / %!%!",
"O oo} } } 0 ] | } } } } ooV %!%!",
"D g z z z L J . M u z z g H %!%!",
"3 o v v v @ @ ? > , K v o 3 % %!",
"3 n q q q 8 9 5 * ) c q n 3 & %!",
"D d s s t 6 ( + k t t s e F ! %!",
"N W w y y 1 r y y y y x X S %!%!",
"%!: h z { { { { { { z i ; 7 %!%!",
"%!Q A i z { { { { z j B ` %!%!%!",
"%!%!R ; Y f p p f Y ; ` %!%!%!%!",
"%!%!%!- P G 3 3 G U 2 %!%!%!%!%!",
"%!%!%!%!%!%!$ ' # %!%!%!%!%!%!%!",
"%!%!%!%!%!%!%!%!%!%!%!%!%!%!%!%!"
};
