/* XPM */
static char *play_xpm[] = {
"32 32 250 2 0 0",
"   c #000000",
"!  c #020202",
"#  c #040405",
"$  c #050506",
"%  c #060707",
"&  c #070808",
"'  c #151617",
"(  c #161718",
")  c #212426",
"*  c #303337",
"+  c #34373B",
",  c #35393C",
"-  c #383A3C",
".  c #35393D",
"/  c #404549",
"0  c #41464A",
"1  c #4F545A",
"2  c #50555A",
"3  c #555C62",
"4  c #585D63",
"5  c #5C6268",
"6  c #5D6369",
"7  c #5F7184",
"8  c #677787",
"9  c #747E87",
":  c #757E88",
";  c #5F7489",
"<  c #6C7D8E",
"=  c #4A7094",
">  c #5F7B96",
"?  c #687F96",
"@  c #376999",
"A  c #72869A",
"B  c #75899D",
"C  c #74899E",
"D  c #2563A0",
"E  c #8294A6",
"F  c #1660A9",
"G  c #1B62A9",
"H  c #8296AA",
"I  c #8397AA",
"J  c #5E86AE",
"K  c #8D9EB0",
"L  c #1A66B4",
"M  c #7092B5",
"N  c #99A6B5",
"O  c #7F9BB8",
"P  c #1669BC",
"Q  c #8FA7BD",
"R  c #1269C2",
"S  c #1B6FC4",
"T  c #93ABC4",
"U  c #95ACC4",
"V  c #9CB0C4",
"W  c #ADB9C4",
"X  c #0465C5",
"Y  c #0A67C5",
"Z  c #2B78C5",
"[  c #4585C5",
"oo c #0063C6",
"]  c #0767C6",
"^  c #0867C6",
"_  c #367EC6",
"`  c #3B80C6",
"a  c #5890C6",
"b  c #6797C6",
"c  c #0566C7",
"d  c #0767C7",
"e  c #0867C7",
"f  c #0868C7",
"g  c #0968C7",
"h  c #0F6BC7",
"i  c #3980C7",
"j  c #0968C8",
"k  c #0A69C8",
"l  c #0B69C8",
"m  c #0C6AC8",
"n  c #0D6AC8",
"o  c #0D6BC8",
"p  c #0F6BC8",
"q  c #106CC8",
"r  c #4B89C8",
"s  c #508CC8",
"t  c #0E6BC9",
"u  c #0F6BC9",
"v  c #0F6CC9",
"w  c #106CC9",
"x  c #106DC9",
"y  c #116DC9",
"z  c #126EC9",
"{  c #1B72C9",
"|  c #1D74C9",
"}  c #126ECA",
"~  c #136ECA",
" ! c #146ECA",
"!! c #136FCA",
"#! c #146FCA",
"$! c #156FCA",
"%! c #1570CA",
"&! c #1670CA",
"'! c #1971CA",
"(! c #1B72CA",
")! c #4C8CCA",
"*! c #6798CA",
"+! c #1F75CB",
",! c #2C7BCB",
"-! c #2F7DCB",
".! c #317ECB",
"/! c #3580CB",
"0! c #5591CB",
"1! c #6C9BCB",
"2! c #2277CC",
"3! c #2679CC",
"4! c #2779CC",
"5! c #2F7DCC",
"6! c #317DCC",
"7! c #327ECC",
"8! c #3781CC",
"9! c #3A83CC",
":! c #2177CD",
";! c #2277CD",
"<! c #2278CD",
"=! c #2378CD",
">! c #3280CD",
"?! c #3681CD",
"@! c #3882CD",
"A! c #5692CD",
"B! c #ADBDCD",
"C! c #3783CE",
"D! c #4288CE",
"E! c #5C95CE",
"F! c #458AD0",
"G! c #3181D1",
"H! c #3281D1",
"I! c #3583D1",
"J! c #4188D1",
"K! c #438AD2",
"L! c #498DD2",
"M! c #4089D3",
"N! c #408AD3",
"O! c #428AD3",
"P! c #438BD3",
"Q! c #9DB8D3",
"R! c #9DB9D3",
"S! c #408AD4",
"T! c #458DD4",
"U! c #498ED4",
"V! c #498FD4",
"W! c #70A2D4",
"X! c #9FB9D4",
"Y! c #A1BAD4",
"Z! c #A2BBD4",
"[! c #BFC9D4",
"o! c #458DD5",
"]! c #468DD5",
"^! c #478ED5",
"_! c #72A3D5",
"`! c #A3BCD5",
"a! c #A4BCD5",
"b! c #A5BDD6",
"c! c #A9BFD6",
"d! c #4E92D7",
"e! c #5395D7",
"f! c #5596D8",
"g! c #5898D8",
"h! c #629CD8",
"i! c #629DD8",
"j! c #ADC2D8",
"k! c #B1C5D8",
"l! c #5F9DDA",
"m! c #B6C7DA",
"n! c #68A2DB",
"o! c #69A2DB",
"p! c #69A2DC",
"q! c #C0CEDC",
"r! c #6EA6DD",
"s! c #6FA6DD",
"t! c #70A7DD",
"u! c #72A8DE",
"v! c #73A9DF",
"w! c #77ABDF",
"x! c #CCD6E0",
"y! c #7CAFE1",
"z! c #C8D4E1",
"{! c #8CB7E3",
"|! c #90BAE4",
"}! c #93BCE5",
"~! c #CBD8E5",
" # c #CFDBE7",
"!# c #A0C4E8",
"## c #D5DFE9",
"$# c #B1CEEB",
"%# c #D5E0EB",
"&# c #B6D1EC",
"'# c #D4DFEC",
"(# c #B6D1ED",
")# c #B8D2ED",
"*# c #D8E2ED",
"+# c #DBE4EE",
",# c #C6DBEF",
"-# c #C8DCF0",
".# c #CDDFF1",
"/# c #CEE0F1",
"0# c #D0E1F1",
"1# c #D1E1F1",
"2# c #D6E4F1",
"3# c #D9E5F1",
"4# c #DFE7F1",
"5# c #DFE8F1",
"6# c #CADEF2",
"7# c #D4E4F2",
"8# c #E2EAF2",
"9# c #D5E4F3",
":# c #D6E4F3",
";# c #D6E5F3",
"<# c #D7E5F3",
"=# c #D8E5F3",
"># c #D8E6F3",
"?# c #D6E5F4",
"@# c #D8E6F4",
"A# c #D9E6F4",
"B# c #D9E7F4",
"C# c #DAE7F4",
"D# c #DBE7F4",
"E# c #DBE8F4",
"F# c #DEE9F4",
"G# c #DCE8F5",
"H# c #DCE9F5",
"I# c #DDE9F5",
"J# c #DEE9F5",
"K# c #DEEAF5",
"L# c #DFEAF5",
"M# c #E0EAF5",
"N# c #DFEAF6",
"O# c #E0EBF6",
"P# c #E1EBF6",
"Q# c #E1ECF6",
"R# c #E2ECF6",
"S# c #E4EDF7",
"T# c #E6EFF7",
"U# c #E7EFF8",
"V# c #E8F0F8",
"W# c #EAF1F9",
"X# c #ECF2F9",
"Y# c #EEF4FA",
"Z# c #F0F5FA",
"[# c #F1F6FB",
"o# c #F3F7FB",
"]# c #FFFFFF",
"^# c None",
"^#^#^#^#^#^#^#^#^#^#^#^#^#^#^#^#^#^#^#^#^#^#^#^#^#^#^#^#^#^#^#^#",
"^#^#^#^#^#^#^#^#^#^#^#i -!| ^ oog +!@!s ^#^#^#^#^#^#^#^#^#^#^#^#",
"^#^#^#^#^#^#^#^#^#7!q l!!#6#X#o#X#6#!#l!z D!^#^#^#^#^#^#^#^#^#^#",
"^#^#^#^#^#^#^#8!q y!W#[#[#[#[#[#[#[#[#[#W#y!} A!^#^#^#^#^#^#^#^#",
"^#^#^#^#^#^#4!]!Q#Z#Z#Z#Z#Z#Z#Z#Z#Z#Z#Z#Z#Z#Q#^!?!^#^#^#^#^#^#^#",
"^#^#^#^#^#'!v!Y#Y#Y#Y#Y#Y#Y#Y#Y#Y#Y#Y#Y#Y#Y#Y#Y#v!2!< ^#^#^#^#^#",
"^#^#^#^#3!u!X#X#X#X#X#X#X#X#X#X#X#X#X#X#X#X#X#X#X#u!C!^#^#^#^#^#",
"^#^#^#/!T!W#W#W#W#W#W#W#W#W#W#W#W#W#W#W#W#W#W#W#W#U#o!E!^#^#^#^#",
"^#^#^#p ?#V#V#V#V#V#V#V#V#V#V#V#V#V#V#V#V#V#V#V#V#V#?#z A ^#^#^#",
"^#^#5!w!T#T#T#T#T#T#5#8#T#T#T#T#T#T#T#T#T#T#T#T#T#T#T#w!L!^#^#^#",
"^#^#h I#S#S#S#S#S#S#m!b B!4#S#S#S#S#S#S#S#S#S#S#S#S#S#I#y 8 ^#^#",
"^#_ g!R#R#R#R#R#R#R#k!d!d!a V +#R#R#R#R#R#R#R#R#R#R#R#R#g!1!^#^#",
"^#,!}!O#O#O#O#O#O#O#j!S!S!S!S!r Q %#O#O#O#O#O#O#O#O#O#O#}!K!( ^#",
"^#{ )#J#J#J#J#J#J#J#c!H!H!H!H!H!G!` O  #J#J#J#J#J#J#J#J#)#<!- ^#",
"^#^ 9#G#G#G#G#G#G#G#b!=!=!=!=!=!=!=!=!Z M z!G#G#G#G#G#G#9#k 2 ^#",
"^#ooC#C#C#C#C#C#C#C#Z!$!%!&!&!&!&!&!&!&!%!S J q!C#C#C#C#C#oo5 ^#",
"^#] 1#>#>#>#>#>#>#>#R!f k m o m m l k j d X F C 2#>#>#>#1#k 3 ^#",
"^#(!$#9#;#<#=#>#>#>#Q!c k t w w v t n Y D E ~!>#>#=#<#:#$#:!/ ^#",
"^#.!{!:#<#@#B#C#C#C#X!d t !!$!#!~ R @ N '#D#C#C#C#A#>#;#{!O!) ^#",
"^#[ e!;#>#C#G#I#I#I#Y!e u !! !P = W 3#I#I#I#I#I#H#E#A#<#e!W!$ ^#",
"^#^#w 0#@#E#I#L#N#N#`!d m L > [!F#O#O#O#O#O#N#N#K#G#C#1#x H   ^#",
"^#^#9!r!@#E#I#N#O#O#a!G B x!M#P#P#P#P#P#P#P#O#O#K#G#C#s!U!.   ^#",
"^#^#^#w ,#C#I#L#O#P#*###P#P#P#P#P#P#P#P#P#P#O#O#K#E#-#x T ! ^#^#",
"^#^#^#)!M!A#E#J#N#O#P#P#Q#Q#Q#Q#Q#Q#Q#P#P#P#O#L#I#<#N!h!*   ^#^#",
"^#^#^#^#6!n!C#G#K#N#O#P#P#P#P#P#P#P#P#P#O#O#L#I#E#p!I!9   ^#^#^#",
"^#^#^#^#^#+!o!C#G#K#N#O#O#P#P#P#P#P#O#O#O#L#I#E#p!:!K # ^#^#^#^#",
"^#^#^#^#^#; >!N!.#G#I#K#N#O#O#O#O#O#N#L#K#H#/#N!I!K &   ^#^#^#^#",
"^#^#^#^#^#^#^#0!x t!7#G#I#K#K#K#K#K#J#I#7#t!x i!: #   ^#^#^#^#^#",
"^#^#^#^#^#^#^#^#? F!x f!|!&#9#G#9#(#|!f!y V!U *   ^#^#^#^#^#^#^#",
"^#^#^#^#^#^#^#^#^#^#7 *!J!;!k ook ;!P!_!I , !   ^#^#^#^#^#^#^#^#",
"^#^#^#^#^#^#^#^#^#^#^#^#' + 1 6 4 0 ) %     ^#^#^#^#^#^#^#^#^#^#",
"^#^#^#^#^#^#^#^#^#^#^#^#^#^#^#^#^#^#^#^#^#^#^#^#^#^#^#^#^#^#^#^#"
};
