/* XPM */
static char *rewind_xpm[] = {
"32 32 255 2 0 0",
"   c #000000",
"!  c #020202",
"#  c #040405",
"$  c #050506",
"%  c #060707",
"&  c #070808",
"'  c #151617",
"(  c #161718",
")  c #212426",
"*  c #303337",
"+  c #34373B",
",  c #35393C",
"-  c #383A3C",
".  c #404549",
"/  c #41464A",
"0  c #4F545A",
"1  c #50555A",
"2  c #555C62",
"3  c #585D63",
"4  c #5C6268",
"5  c #5F7184",
"6  c #677787",
"7  c #747E87",
"8  c #757E88",
"9  c #5F7489",
":  c #6C7D8E",
";  c #687F96",
"<  c #72869A",
"=  c #6081A2",
">  c #6584A3",
"?  c #4073A4",
"@  c #4776A4",
"A  c #7B91A5",
"B  c #7B92A9",
"C  c #8296AA",
"D  c #8096AC",
"E  c #1C65AE",
"F  c #296CAF",
"G  c #2C6DAF",
"H  c #8399AF",
"I  c #8D9EB0",
"J  c #1566B5",
"K  c #1A68B5",
"L  c #1366B8",
"M  c #1466B9",
"N  c #1165BA",
"O  c #1567BA",
"P  c #1668BA",
"Q  c #2771BA",
"R  c #9EADBC",
"S  c #216FBD",
"T  c #2D77BF",
"U  c #166BC0",
"V  c #A2B1C0",
"W  c #1169C1",
"X  c #1269C2",
"Y  c #3B7EC3",
"Z  c #A3B3C3",
"[  c #A5B4C3",
"\  c #93ABC4",
"]  c #95ACC4",
"^  c #A6B5C4",
"_  c #A8B6C4",
"`  c #4585C5",
"a  c #AAB7C5",
"b  c #ABB8C5",
"c  c #ADB9C5",
"d  c #0063C6",
"e  c #0465C6",
"f  c #0666C6",
"g  c #0867C6",
"h  c #106BC6",
"i  c #367EC6",
"j  c #4786C6",
"k  c #0867C7",
"l  c #0968C7",
"m  c #0F6BC7",
"n  c #146DC7",
"o  c #3980C7",
"p  c #B0BBC7",
"q  c #0968C8",
"r  c #0A68C8",
"s  c #0B6AC8",
"t  c #0C6AC8",
"u  c #0E6BC8",
"v  c #0F6BC8",
"w  c #106CC8",
"x  c #508CC8",
"y  c #0E6BC9",
"z  c #0E6CC9",
"{  c #106CC9",
"|  c #106DC9",
"}  c #116DC9",
"~  c #126EC9",
" ! c #1B72C9",
"!! c #1D74C9",
"#! c #508DC9",
"$! c #5790C9",
"%! c #94AEC9",
"&! c #116DCA",
"'! c #126ECA",
"(! c #136ECA",
")! c #1971CA",
"*! c #1B72CA",
"+! c #2377CA",
",! c #4C8CCA",
"-! c #6798CA",
".! c #1C73CB",
"/! c #1F75CB",
"0! c #2C7BCB",
"1! c #2F7DCB",
"2! c #317ECB",
"3! c #3580CB",
"4! c #5591CB",
"5! c #6C9BCB",
"6! c #1C73CC",
"7! c #1C74CC",
"8! c #2277CC",
"9! c #2679CC",
":! c #2779CC",
";! c #2F7DCC",
"<! c #317DCC",
"=! c #327ECC",
">! c #3781CC",
"?! c #3A83CC",
"@! c #2177CD",
"A! c #2277CD",
"B! c #2278CD",
"C! c #3280CD",
"D! c #3681CD",
"E! c #3882CD",
"F! c #5692CD",
"G! c #2B7CCE",
"H! c #3783CE",
"I! c #4288CE",
"J! c #5C95CE",
"K! c #6198CF",
"L! c #458AD0",
"M! c #478CD0",
"N! c #3583D1",
"O! c #3985D1",
"P! c #4188D1",
"Q! c #3A86D2",
"R! c #3B86D2",
"S! c #428AD2",
"T! c #498DD2",
"U! c #B7C5D2",
"V! c #4089D3",
"W! c #408AD3",
"X! c #8EB0D3",
"Y! c #458DD4",
"Z! c #498ED4",
"[! c #498FD4",
"\! c #5C98D4",
"]! c #70A2D4",
"^! c #BAC7D4",
"_! c #458DD5",
"`! c #468DD5",
"a! c #478ED5",
"b! c #488ED5",
"c! c #4A8FD5",
"d! c #72A3D5",
"e! c #7EA9D5",
"f! c #498FD6",
"g! c #6AA0D6",
"h! c #5395D7",
"i! c #88B0D7",
"j! c #5596D8",
"k! c #5898D8",
"l! c #629CD8",
"m! c #5F9DDA",
"n! c #A5BFDA",
"o! c #68A2DB",
"p! c #69A2DC",
"q! c #A1BEDC",
"r! c #6EA6DD",
"s! c #70A7DD",
"t! c #72A8DE",
"u! c #73A9DF",
"v! c #77ABDF",
"w! c #B2C9E0",
"x! c #7CAFE1",
"y! c #C8D4E1",
"z! c #C8D5E2",
"{! c #8CB7E3",
"|! c #C9D7E3",
"}! c #CDD8E3",
"~! c #90BAE4",
" # c #CAD8E4",
"!# c #CED9E4",
"## c #93BCE5",
"$# c #CED9E5",
"%# c #CFDAE5",
"&# c #D0DAE5",
"'# c #D2DCE5",
"(# c #D1DCE6",
")# c #D4DCE6",
"*# c #C6D7E7",
"+# c #A0C4E8",
",# c #C6D7E8",
"-# c #CCDAE9",
".# c #B1CEEB",
"/# c #B6D1EC",
"0# c #CFDDEC",
"1# c #D7E1EC",
"2# c #B8D2ED",
"3# c #D2E0ED",
"4# c #D8E2ED",
"5# c #C6DBEF",
"6# c #DEE7EF",
"7# c #C8DCF0",
"8# c #D7E4F0",
"9# c #CDDFF1",
":# c #CEE0F1",
";# c #D0E1F1",
"<# c #DBE6F1",
"=# c #CADEF2",
"># c #D4E4F2",
"?# c #D8E5F2",
"@# c #DBE6F2",
"A# c #D6E4F3",
"B# c #D8E6F3",
"C# c #E2EBF3",
"D# c #D6E5F4",
"E# c #D8E6F4",
"F# c #DAE7F4",
"G# c #DBE8F4",
"H# c #DCE8F4",
"I# c #E0EAF4",
"J# c #E3ECF4",
"K# c #DCE8F5",
"L# c #DCE9F5",
"M# c #DDE9F5",
"N# c #DEE9F5",
"O# c #DEEAF5",
"P# c #DFEAF5",
"Q# c #E1EBF5",
"R# c #DEEAF6",
"S# c #E0EBF6",
"T# c #E1EBF6",
"U# c #E1ECF6",
"V# c #E2ECF6",
"W# c #E3ECF6",
"X# c #E4EDF7",
"Y# c #E6EFF7",
"Z# c #E7EFF8",
"[# c #E8F0F8",
"\# c #EAF1F9",
"]# c #ECF2F9",
"^# c #EEF4FA",
"_# c #F0F5FA",
"`# c #F1F6FB",
"a# c #F3F7FB",
"b# c #FFFFFF",
"c# c None",
"c#c#c#c#c#c#c#c#c#c#c#c#c#c#c#c#c#c#c#c#c#c#c#c#c#c#c#c#c#c#c#c#",
"c#c#c#c#c#c#c#c#c#c#c#o 1!!!g d l /!E!x c#c#c#c#c#c#c#c#c#c#c#c#",
"c#c#c#c#c#c#c#c#c#=!w m!+#=#]#a#]#=#+#m!~ I!c#c#c#c#c#c#c#c#c#c#",
"c#c#c#c#c#c#c#>!w x!\#`#`#`#`#`#`#`#`#`#\#x!'!F!c#c#c#c#c#c#c#c#",
"c#c#c#c#c#c#:!`!U#_#_#_#_#_#_#_#_#_#_#_#_#_#U#a!D!c#c#c#c#c#c#c#",
"c#c#c#c#c#)!u!^#^#^#^#^#^#^#^#^#^#^#^#^#^#^#^#^#u!8!: c#c#c#c#c#",
"c#c#c#c#9!t!]#]#]#]#]#]#]#]#]#]#]#]#]#]#]#]#]#]#]#t!H!c#c#c#c#c#",
"c#c#c#3!Y!\#\#\#\#\#\#\#\#\#\#\#\#\#\#\#\#\#\#\#\#Z#_!J!c#c#c#c#",
"c#c#c#v D#[#[#[#[#[#[#[#[#[#[#[#[#[#[#[#[#[#[#[#[#[#D#~ < c#c#c#",
"c#c#;!v!Y#Y#Y#Y#Y#Y#Y#Y#Y#Y#!#C#Y#Y#Y#Y#Y#Y#Y#J#6#Y#Y#v!T!c#c#c#",
"c#c#m M#X#X#X#X#X#X#X#X#I#q!$!)#X#X#X#X#X#W#-#g!p X#X#M#} 6 c#c#",
"c#i k!V#V#V#V#V#V#V#Q#*#\!f!j '#V#V#V#V#<#i!c!b!c V#V#V#k!5!c#c#",
"c#0!##S#S#S#S#S#S#8#e!R!Q!Q!Y (#S#S#P#w!M!Q!Q!O!b S#S#S###S!( c#",
"c# !2#N#N#N#N#H#n!E!G!G!G!G!T %#N#0#K!G!G!G!G!G!a N#N#N#2#B!- c#",
"c#g A#K#K#K#,##!6!7!7!7!7!7!S y!X!+!7!7!7!7!7!.!^ K#K#K#A#r 1 c#",
"c#d F#F#F#%!h t y z z z z z X Q y z z z z z z u [ F#F#F#F#d 4 c#",
"c#g ;#B#B#3#H J k q s s t s N A K r s s t r k e Z B#B#B#;#r 2 c#",
"c#*!.#A#A#?#?#z!= W z &!(!'!O |! #> U '!(!&!t f Z ?#?#A#.#@!. c#",
"c#2!{!A#?#E#F#F#B#U!? h '!(!P  #F#F#^!@ n (!y k [ E#B#A#{!S!) c#",
"c#` h!A#B#F#K#K#K#K#?#R F u M $#M#M#M#@#V G t f ^ G#E#?#h!]!$ c#",
"c#c#{ ;#E#G#M#M#M#M#N#O#1#B E &#P#P#P#P#P#4#D L _ K#F#;#| C   c#",
"c#c#?!r!E#G#M#M#M#M#N#R#P#P#!#@#P#P#P#P#P#P#S#}!}!K#F#r!Z!,   c#",
"c#c#c#{ 5#F#M#M#M#M#N#O#P#P#P#P#P#P#P#P#P#P#S#S#O#G#7#| \ ! c#c#",
"c#c#c#,!V!E#G#G#G#G#H#M#N#N#N#N#N#N#N#N#N#N#S#P#M#?#W!l!*   c#c#",
"c#c#c#c#<!o!F#K#O#P#S#T#T#T#T#T#T#T#T#T#S#S#P#M#G#p!N!7   c#c#c#",
"c#c#c#c#c#/!o!F#K#O#P#S#S#T#T#T#T#T#S#S#S#P#M#G#p!@!I # c#c#c#c#",
"c#c#c#c#c#9 C!W!9#K#M#O#P#S#S#S#S#S#P#P#O#L#:#W!N!I &   c#c#c#c#",
"c#c#c#c#c#c#c#4!| s!>#K#M#O#O#O#O#O#N#M#>#s!| l!8 #   c#c#c#c#c#",
"c#c#c#c#c#c#c#c#; L!| j!~!/#A#K#A#/#~!j!} [!] *   c#c#c#c#c#c#c#",
"c#c#c#c#c#c#c#c#c#c#5 -!P!A!r d r A!S!d!C , !   c#c#c#c#c#c#c#c#",
"c#c#c#c#c#c#c#c#c#c#c#c#' + 0 4 3 / ) %     c#c#c#c#c#c#c#c#c#c#",
"c#c#c#c#c#c#c#c#c#c#c#c#c#c#c#c#c#c#c#c#c#c#c#c#c#c#c#c#c#c#c#c#"
};
