/* XPM */
static char *image_xpm[] = {
/* width height ncolors chars_per_pixel */
"16 16 71 1",
"  c #8e8b8a",
". c #cfcfce",
"+ c #35281d",
"@ c #979493",
"# c #4d3d30",
"$ c #cccac7",
"% c #c7c6c5",
"& c #848180",
"* c #c3c1c0",
"= c #93918f",
"- c #a5a3a1",
"; c #efeeee",
"> c #3a2819",
", c #4f453d",
"' c #ffffff",
") c #bdbcbb",
"! c #514d4b",
"~ c #c4c3c2",
"{ c #9a9896",
"] c #cecdcc",
"^ c #a4a2a1",
"/ c #bcbab9",
"( c #a6a4a3",
"_ c #e8e7e7",
": c #cccbcb",
"< c #a8a6a5",
"[ c #aaa8a7",
"} c #acaaa9",
"| c #bcbbba",
"1 c #ececeb",
"2 c #82766c",
"3 c #b2b0af",
"4 c #cac9c8",
"5 c #898785",
"6 c #50453e",
"7 c #e0dfdf",
"8 c #878482",
"9 c #9a9796",
"0 c #d7d6d5",
"a c #7b4f2a",
"b c #b6b5b4",
"c c #e77817",
"d c #949290",
"e c #534f4c",
"f c #524e4c",
"g c #e67717",
"h c #6e6b69",
"i c #9e9c9b",
"j c #eeeded",
"k c #fefefe",
"l c #4e3d30",
"m c #716d6c",
"n c #55514f",
"o c #a9a7a6",
"p c #adabaa",
"q c #504842",
"r c #8c8988",
"s c #797675",
"t c #504c4a",
"u c #92908e",
"v c #34271c",
"w c #f8f8f8",
"x c #827f7e",
"y c #bb651a",
"z c #73706e",
"A c #625e5c",
"B c #676461",
"C c #f0efef",
"D c #b5b3b2",
"E c #64615f",
"F c #585452",
"'''''''''''_''''",
"''''''''''o'E1''",
"'''''''$qCp^3i''",
"''''''2als0A;t''",
"'',##+ycl'!d|84'",
"''#cg>ccl'h.Bb{'",
"''#cc>ccl'^[n~r'",
"''#cc>ccl')=t:&'",
"''#cc>ccl'b9e* '",
"''#cc>ccl'u(z^p'",
"''6##vycl'FD@m7'",
"''''''2al%5fwF''",
"'''''''$q<]x-}''",
"''''''''''<kf'''",
"'''''''''''/j'''",
"''''''''''''''''",
};