/* XPM */
static char *stop_xpm[] = {
"16 16 85 1 0 0",
"  c #000000",
"! c #6C737B",
"# c #6D747B",
"$ c #8A939C",
"% c #8E969D",
"& c #8C959F",
"' c #8E97A0",
"( c #5B87B3",
") c #5484B4",
"* c #5685B5",
"+ c #5F8BB7",
", c #6D93BA",
"- c #91A7BC",
". c #7B9CBD",
"/ c #A1B0BE",
"0 c #1469BF",
"1 c #196CC0",
"2 c #A0B4C7",
"3 c #0A69C8",
"4 c #0B69C8",
"5 c #0B6AC8",
"6 c #A3B4C8",
"7 c #0F6CC9",
"8 c #106DC9",
"9 c #116DC9",
": c #126EC9",
"; c #126ECA",
"< c #1771CB",
"= c #1871CB",
"> c #1972CB",
"? c #277ACD",
"@ c #2A7CCD",
"A c #287BCE",
"B c #297CCE",
"C c #2A7CCF",
"D c #2C7DCF",
"E c #3583D1",
"F c #5B99D6",
"G c #5D99D7",
"H c #629DD7",
"I c #82ACD7",
"J c #84AED7",
"K c #5295D8",
"L c #649ED8",
"M c #629DD9",
"N c #669FD9",
"O c #68A1D9",
"P c #5E9CDA",
"Q c #5F9CDA",
"R c #619DDA",
"S c #68A1DA",
"T c #90B5DA",
"U c #649FDB",
"V c #69A3DC",
"W c #91B7DC",
"X c #8EB5DD",
"Y c #82AFDE",
"Z c #83B0DE",
"[ c #A8C8E9",
"v c #A9C9E9",
"] c #AECCEB",
"^ c #AFCDEB",
"_ c #B0CEEB",
"` c #B1CEEB",
"a c #B2CFEB",
"b c #B9D3EE",
"c c #BCD5EE",
"d c #CEE0F1",
"e c #D2E2F2",
"f c #D6E5F3",
"g c #D8E6F3",
"h c #DAE7F4",
"i c #DBE7F4",
"j c #DCE8F5",
"k c #DDE9F5",
"l c #DEEAF5",
"m c #DFEAF6",
"n c #E0EBF6",
"o c #E1EBF6",
"p c #E4EDF7",
"q c #E5EEF7",
"r c #E8F0F8",
"s c #ECF2F9",
"t c #FFFFFF",
"u c None",
"uuuuM@44DSuuuuuu",
"uuZ:VcqqcV;Wuuuu",
"uY>cssssssc>Tuuu",
"u9brrrrrrrrb:/uu",
"GUppKKKKK.ppUOuu",
"?^nnEEEEE,nn^Cuu",
"3ejj>>>>>+jje3%u",
"3dgg57774)ggd3&u",
"?[hh9<=<8*ihvA!u",
"FPkm01110(mlQLuu",
"u8_noooooon`96uu",
"uI<`noooona=Xuuu",
"uuJ9R]ff]R9Xuuuu",
"uuu-HB33BN2uuuuu",
"uuuuuu$'#uuuuuuu",
"uuuuuuuuuuuuuuuu"
};
