/* XPM */
static char *stop_xpm[] = {
"32 32 222 2 0 0",
"   c #000000",
"!  c #020202",
"#  c #040405",
"$  c #050506",
"%  c #060707",
"&  c #070808",
"'  c #151617",
"(  c #161718",
")  c #212426",
"*  c #303337",
"+  c #34373B",
",  c #35393C",
"-  c #383A3C",
".  c #35393D",
"/  c #404549",
"0  c #41464A",
"1  c #4F545A",
"2  c #50555A",
"3  c #555C62",
"4  c #585D63",
"5  c #5C6268",
"6  c #5D6369",
"7  c #5F7184",
"8  c #677787",
"9  c #747E87",
":  c #757E88",
";  c #5F7489",
"<  c #6C7D8E",
"=  c #687F96",
">  c #72869A",
"?  c #406F9F",
"@  c #41709F",
"A  c #4271A0",
"B  c #4371A0",
"C  c #4A76A1",
"D  c #6482A2",
"E  c #6483A2",
"F  c #6583A2",
"G  c #6683A2",
"H  c #6684A2",
"I  c #5179A3",
"J  c #587EA4",
"K  c #5F82A6",
"L  c #6687A7",
"M  c #8296AA",
"N  c #8397AA",
"O  c #748FAB",
"P  c #889AAC",
"Q  c #8D9EB0",
"R  c #899FB6",
"S  c #3A7CBD",
"T  c #3B7DBE",
"U  c #3C7DBE",
"V  c #3C7DBF",
"W  c #3E7EBF",
"X  c #4784C1",
"Y  c #528AC3",
"Z  c #93ABC4",
"[  c #95ACC4",
"oo c #4585C5",
"]  c #5B90C5",
"^  c #0063C6",
"_  c #0767C6",
"`  c #0867C6",
"a  c #367EC6",
"b  c #0666C7",
"c  c #0767C7",
"d  c #0868C7",
"e  c #0968C7",
"f  c #0F6BC7",
"g  c #3980C7",
"h  c #0968C8",
"i  c #0A68C8",
"j  c #0A69C8",
"k  c #0B69C8",
"l  c #0B6AC8",
"m  c #0D6BC8",
"n  c #0F6BC8",
"o  c #106CC8",
"p  c #508CC8",
"q  c #6496C8",
"r  c #7DA2C8",
"s  c #0D6BC9",
"t  c #0E6BC9",
"u  c #0E6CC9",
"v  c #0F6CC9",
"w  c #106CC9",
"x  c #106DC9",
"y  c #116DC9",
"z  c #126EC9",
"{  c #1B72C9",
"|  c #1D74C9",
"}  c #116DCA",
"~  c #126ECA",
" ! c #136ECA",
"!! c #146FCA",
"#! c #156FCA",
"$! c #1570CA",
"%! c #1670CA",
"&! c #1971CA",
"'! c #1B72CA",
"(! c #4C8CCA",
")! c #6798CA",
"*! c #6F9CCA",
"+! c #1771CB",
",! c #1871CB",
"-! c #1972CB",
".! c #1F75CB",
"/! c #2C7BCB",
"0! c #2F7DCB",
"1! c #317ECB",
"2! c #3580CB",
"3! c #5591CB",
"4! c #6C9BCB",
"5! c #2277CC",
"6! c #2679CC",
"7! c #2779CC",
"8! c #2F7DCC",
"9! c #317DCC",
":! c #327ECC",
";! c #3781CC",
"<! c #3A83CC",
"=! c #2177CD",
">! c #2277CD",
"?! c #2278CD",
"@! c #3280CD",
"A! c #3681CD",
"B! c #3882CD",
"C! c #5692CD",
"D! c #277ACE",
"E! c #3783CE",
"F! c #4288CE",
"G! c #5C95CE",
"H! c #458AD0",
"I! c #3583D1",
"J! c #4188D1",
"K! c #438AD2",
"L! c #498DD2",
"M! c #649AD2",
"N! c #4089D3",
"O! c #408AD3",
"P! c #428AD3",
"Q! c #438BD3",
"R! c #458DD4",
"S! c #498ED4",
"T! c #498FD4",
"U! c #70A2D4",
"V! c #448CD5",
"W! c #458DD5",
"X! c #468DD5",
"Y! c #478ED5",
"Z! c #72A3D5",
"[! c #5395D7",
"o! c #5295D8",
"]! c #5596D8",
"^! c #5898D8",
"_! c #629CD8",
"`! c #629DD8",
"a! c #5F9DDA",
"b! c #68A2DB",
"c! c #69A2DB",
"d! c #69A2DC",
"e! c #6EA6DD",
"f! c #6FA6DD",
"g! c #70A7DD",
"h! c #72A8DE",
"i! c #73A9DF",
"j! c #77ABDF",
"k! c #7CAFE1",
"l! c #8CB7E3",
"m! c #90BAE4",
"n! c #93BCE5",
"o! c #A0C4E8",
"p! c #B1CEEB",
"q! c #B6D1EC",
"r! c #B6D1ED",
"s! c #B8D2ED",
"t! c #C6DBEF",
"u! c #C8DCF0",
"v! c #CDDFF1",
"w! c #CEE0F1",
"x! c #D0E1F1",
"y! c #D1E1F1",
"z! c #CADEF2",
"{! c #D4E4F2",
"|! c #E1EAF2",
"}! c #D5E4F3",
"~! c #D6E4F3",
" # c #D6E5F3",
"!# c #D7E5F3",
"## c #D8E5F3",
"$# c #D8E6F3",
"%# c #E2EBF3",
"&# c #D6E5F4",
"'# c #D8E6F4",
"(# c #D9E6F4",
")# c #D9E7F4",
"*# c #DAE7F4",
"+# c #DBE8F4",
",# c #DCE8F5",
"-# c #DCE9F5",
".# c #DDE9F5",
"/# c #DEE9F5",
"0# c #DEEAF5",
"1# c #DFEAF5",
"2# c #DFEAF6",
"3# c #E0EBF6",
"4# c #E1EBF6",
"5# c #E1ECF6",
"6# c #E2ECF6",
"7# c #E4EDF7",
"8# c #E6EFF7",
"9# c #E7EFF8",
":# c #E8F0F8",
";# c #EAF1F9",
"<# c #ECF2F9",
"=# c #EEF4FA",
"># c #F0F5FA",
"?# c #F1F6FB",
"@# c #F3F7FB",
"A# c #FFFFFF",
"B# c None",
"B#B#B#B#B#B#B#B#B#B#B#B#B#B#B#B#B#B#B#B#B#B#B#B#B#B#B#B#B#B#B#B#",
"B#B#B#B#B#B#B#B#B#B#B#g 0!| ` ^ e .!B!p B#B#B#B#B#B#B#B#B#B#B#B#",
"B#B#B#B#B#B#B#B#B#:!o a!o!z!<#@#<#z!o!a!z F!B#B#B#B#B#B#B#B#B#B#",
"B#B#B#B#B#B#B#;!o k!;#?#?#?#?#?#?#?#?#?#;#k!~ C!B#B#B#B#B#B#B#B#",
"B#B#B#B#B#B#7!X!5#>#>#>#>#>#>#>#>#>#>#>#>#>#5#Y!A!B#B#B#B#B#B#B#",
"B#B#B#B#B#&!i!=#=#=#=#=#=#=#=#=#=#=#=#=#=#=#=#=#i!5!< B#B#B#B#B#",
"B#B#B#B#6!h!<#<#<#<#<#<#<#<#<#<#<#<#<#<#<#<#<#<#<#h!E!B#B#B#B#B#",
"B#B#B#2!R!;#;#;#;#;#;#;#;#;#;#;#;#;#;#;#;#;#;#;#;#9#W!G!B#B#B#B#",
"B#B#B#n &#:#:#:#:#:#:#:#:#:#:#:#:#:#:#:#:#:#:#:#:#:#&#z > B#B#B#",
"B#B#8!j!8#8#8#8#8#%#|!|!|!|!|!|!|!|!|!|!|!%#8#8#8#8#8#j!L!B#B#B#",
"B#B#f .#7#7#7#7#7#r M!M!M!M!M!M!M!M!M!M!M!O 7#7#7#7#7#.#y 8 B#B#",
"B#a ^!6#6#6#6#6#6#*!o!o!o!o!o!o!o!o!o!o!o!L 6#6#6#6#6#6#^!4!B#B#",
"B#/!n!3#3#3#3#3#3#q V!V!V!V!V!V!V!V!V!V!V!K 3#3#3#3#3#3#n!K!( B#",
"B#{ s!/#/#/#/#/#/#] I!I!I!I!I!I!I!I!I!I!I!J /#/#/#/#/#/#s!?!- B#",
"B#` }!,#,#,#,#,#,#Y D!D!D!D!D!D!D!D!D!D!D!I ,#,#,#,#,#,#}!j 2 B#",
"B#^ *#*#*#*#*#*#*#X -!-!-!-!-!-!-!-!-!-!-!C *#*#*#*#*#*#*#^ 5 B#",
"B#_ y!$#$#$#$#$#$#W l m u u u u u u u m l B $#$#$#$#$#$#y!j 3 B#",
"B#'!p!}! #!###$#$#S b k m t t t t t m j b ? $#$#$###!#~!p!=!/ B#",
"B#1!l!~!!#'#)#*#*#T h w !!$!$!$!$!$!!!v h @ *#*#*#(#$# #l!P!) B#",
"B#oo[! #$#*#,#.#.#U j ~ +!,!,!,!,!,!%!y i A .#.#-#+#(#!#[!U!$ B#",
"B#B#w x!'#+#.#1#2#V j y $!+!+!+!+!+!#!w h B 2#2#0#,#*#y!x M   B#",
"B#B#<!e!'#+#.#2#3#V d t ~  ! ! ! ! !} s c A 3#3#0#,#*#f!S!.   B#",
"B#B#B#w t!*#.#1#3#R E G H H H H H H H F D P 3#3#0#+#u!x Z ! B#B#",
"B#B#B#(!N!(#+#/#2#3#4#4#5#5#5#5#5#5#5#4#4#4#3#1#.#!#O!_!*   B#B#",
"B#B#B#B#9!b!*#,#0#2#3#4#4#4#4#4#4#4#4#4#3#3#1#.#+#d!I!9   B#B#B#",
"B#B#B#B#B#.!c!*#,#0#2#3#3#4#4#4#4#4#3#3#3#1#.#+#d!=!Q # B#B#B#B#",
"B#B#B#B#B#; @!O!v!,#.#0#2#3#3#3#3#3#2#1#0#-#w!O!I!Q &   B#B#B#B#",
"B#B#B#B#B#B#B#3!x g!{!,#.#0#0#0#0#0#/#.#{!g!x `!: #   B#B#B#B#B#",
"B#B#B#B#B#B#B#B#= H!x ]!m!q!}!,#}!r!m!]!y T![ *   B#B#B#B#B#B#B#",
"B#B#B#B#B#B#B#B#B#B#7 )!J!>!j ^ j >!Q!Z!N , !   B#B#B#B#B#B#B#B#",
"B#B#B#B#B#B#B#B#B#B#B#B#' + 1 6 4 0 ) %     B#B#B#B#B#B#B#B#B#B#",
"B#B#B#B#B#B#B#B#B#B#B#B#B#B#B#B#B#B#B#B#B#B#B#B#B#B#B#B#B#B#B#B#"
};
