/* XPM */
static char const *stop_xpm[] = {
/* width height ncolors chars_per_pixel */
"16 16 5 1",
"  c #da251d",
". c None",
"+ c #f6c9c7",
"@ c #ed938f",
"# c #ed928e",
"................",
"................",
"...+#########+..",
"...#         @..",
"...#         @..",
"...#         @..",
"...#         @..",
"...#         @..",
"...#         @..",
"...#         @..",
"...#         @..",
"...#         @..",
"...+#########+..",
"................",
"................",
"................",
};
